<svg width="16" height="21" viewBox="0 0 16 21" fill="none" xmlns="http://www.w3.org/2000/svg">
<path d="M7.25408e-05 7.36301C7.25408e-05 6.47557 0.155203 5.63718 0.460902 4.85468C0.752974 4.09466 1.18691 3.39711 1.73959 2.7992C2.29114 2.20915 2.92231 1.69891 3.61485 1.28326C4.32539 0.853397 5.09463 0.5291 5.89846 0.320532C6.712 0.106909 7.54971 -0.000822851 8.39082 4.73183e-06C9.69004 4.73183e-06 10.8991 0.274906 12.0204 0.822426C13.1271 1.35996 14.069 2.18489 14.7478 3.21098C15.4481 4.25469 15.796 5.43528 15.796 6.75161C15.796 7.54096 15.7185 8.31319 15.5599 9.06831C15.4042 9.82301 15.1568 10.5558 14.823 11.2504C14.505 11.9228 14.089 12.5443 13.5888 13.0949C13.0861 13.6366 12.4773 14.0692 11.8003 14.3656C11.0652 14.6877 10.2701 14.8498 9.46761 14.8412C8.90983 14.8412 8.35318 14.7101 7.80338 14.4466C7.25358 14.1842 6.85891 13.8238 6.62165 13.3618C6.53838 13.6823 6.42431 14.1454 6.2726 14.7511C6.1266 15.3557 6.0285 15.7458 5.98515 15.9226C5.93953 16.0982 5.85512 16.3914 5.73193 16.7975C5.64838 17.0979 5.5412 17.3912 5.4114 17.6746L5.01901 18.4435C4.84931 18.7734 4.65961 19.0926 4.45096 19.3993C4.2445 19.6982 3.98899 20.0552 3.68443 20.4659L3.51447 20.5263L3.40154 20.4031C3.27949 19.1107 3.21675 18.3374 3.21675 18.0819C3.21675 17.3256 3.30687 16.4769 3.48481 15.5348C3.65933 14.5937 3.93538 13.4108 4.30609 11.9884C4.67681 10.5671 4.88897 9.73104 4.94601 9.48351C4.68479 8.95082 4.55248 8.25502 4.55248 7.39951C4.55248 6.71625 4.76578 6.07634 5.19353 5.47407C5.62242 4.87408 6.16424 4.57408 6.82126 4.57408C7.3243 4.57408 7.71441 4.74062 7.99387 5.07483C8.27447 5.40791 8.41135 5.82767 8.41135 6.33983C8.41135 6.88279 8.23113 7.66871 7.8684 8.69645C7.50566 9.72534 7.32544 10.493 7.32544 11.0029C7.32544 11.5196 7.51023 11.9519 7.8798 12.2907C8.24453 12.6296 8.72685 12.8133 9.22465 12.8029C9.67635 12.8029 10.095 12.7002 10.4839 12.4937C10.8668 12.2933 11.1983 12.0072 11.4524 11.6576C12.0058 10.8983 12.4004 10.0351 12.6124 9.11964C12.7219 8.63828 12.8063 8.18087 12.8588 7.75084C12.9147 7.31853 12.9387 6.91017 12.9387 6.52234C12.9387 5.09993 12.487 3.9912 11.5893 3.1973C10.687 2.40339 9.5121 2.00872 8.06687 2.00872C6.42317 2.00872 5.04867 2.54027 3.94792 3.6068C2.84604 4.6699 2.29167 6.02159 2.29167 7.66073C2.29167 8.02232 2.34643 8.37136 2.45023 8.709C2.55175 9.0455 2.66239 9.31355 2.78216 9.51203C2.90079 9.70708 3.01258 9.89758 3.11409 10.0732C3.21675 10.2489 3.27037 10.3744 3.27037 10.4497C3.27037 10.6801 3.20991 10.9801 3.08786 11.3508C2.96125 11.7215 2.81182 11.9063 2.63159 11.9063C2.61448 11.9063 2.54376 11.8937 2.42057 11.8675C1.99392 11.7401 1.60861 11.502 1.30385 11.1774C0.980405 10.841 0.725142 10.4451 0.552155 10.0116C0.379661 9.57973 0.24531 9.13355 0.150641 8.6782C0.0483588 8.24735 -0.00218726 7.80584 7.25408e-05 7.36301Z" fill="#363853"/>
</svg>
